<svg xmlns="http://www.w3.org/2000/svg" viewBox="0 0 720 960" role="img" aria-labelledby="title desc">
  <title id="title">Portrait responsive media example</title>
  <desc id="desc">A clean abstract portrait composition used for responsive image examples.</desc>
  <defs>
    <linearGradient id="bg" x1="0" y1="0" x2="1" y2="1">
      <stop offset="0" stop-color="#dbeafe"/>
      <stop offset="0.55" stop-color="#ecfeff"/>
      <stop offset="1" stop-color="#f0fdf4"/>
    </linearGradient>
    <linearGradient id="card" x1="0" y1="0" x2="1" y2="1">
      <stop offset="0" stop-color="#3b82f6"/>
      <stop offset="1" stop-color="#22c55e"/>
    </linearGradient>
  </defs>
  <rect width="720" height="960" fill="url(#bg)"/>
  <circle cx="548" cy="130" r="58" fill="#fef3c7"/>
  <path d="M0 690L120 510L240 635L370 430L520 688L720 510V960H0Z" fill="#bfdbfe"/>
  <path d="M0 780L170 610L290 760L430 565L560 805L720 675V960H0Z" fill="#86efac" opacity=".78"/>
  <rect x="70" y="88" width="420" height="238" rx="30" fill="#ffffff" opacity=".86"/>
  <rect x="108" y="132" width="240" height="22" rx="11" fill="#1d4ed8"/>
  <rect x="108" y="178" width="318" height="18" rx="9" fill="#93c5fd"/>
  <rect x="108" y="216" width="270" height="18" rx="9" fill="#bbf7d0"/>
  <rect x="108" y="254" width="190" height="18" rx="9" fill="#bfdbfe"/>
  <rect x="356" y="646" width="210" height="150" rx="24" fill="url(#card)" opacity=".9"/>
  <rect x="390" y="686" width="95" height="14" rx="7" fill="#eff6ff"/>
  <rect x="390" y="724" width="132" height="14" rx="7" fill="#eff6ff" opacity=".82"/>
</svg>
