<svg xmlns="http://www.w3.org/2000/svg" viewBox="0 0 1200 720" role="img" aria-labelledby="title desc">
  <title id="title">Wide responsive media example</title>
  <desc id="desc">A clean abstract landscape used for responsive image examples.</desc>
  <defs>
    <linearGradient id="sky" x1="0" y1="0" x2="1" y2="1">
      <stop offset="0" stop-color="#dbeafe"/>
      <stop offset="0.58" stop-color="#ecfeff"/>
      <stop offset="1" stop-color="#f0fdf4"/>
    </linearGradient>
    <linearGradient id="panel" x1="0" y1="0" x2="1" y2="1">
      <stop offset="0" stop-color="#3b82f6"/>
      <stop offset="1" stop-color="#22c55e"/>
    </linearGradient>
  </defs>
  <rect width="1200" height="720" fill="url(#sky)"/>
  <circle cx="1010" cy="135" r="70" fill="#fef3c7"/>
  <path d="M0 530L180 370L330 500L500 300L730 535L900 410L1200 560V720H0Z" fill="#bfdbfe"/>
  <path d="M0 590L240 430L435 570L610 390L835 610L1010 485L1200 595V720H0Z" fill="#86efac" opacity=".78"/>
  <rect x="92" y="92" width="360" height="184" rx="28" fill="#ffffff" opacity=".82"/>
  <rect x="124" y="126" width="220" height="20" rx="10" fill="#1d4ed8"/>
  <rect x="124" y="168" width="286" height="16" rx="8" fill="#93c5fd"/>
  <rect x="124" y="202" width="240" height="16" rx="8" fill="#bbf7d0"/>
  <rect x="812" y="462" width="230" height="120" rx="22" fill="url(#panel)" opacity=".9"/>
  <rect x="842" y="494" width="98" height="14" rx="7" fill="#eff6ff"/>
  <rect x="842" y="528" width="150" height="14" rx="7" fill="#eff6ff" opacity=".82"/>
</svg>
