<svg width="1200" height="800" viewBox="0 0 1200 800" fill="none" xmlns="http://www.w3.org/2000/svg" role="img" aria-labelledby="title desc">
  <title id="title">Placeholder three</title>
  <desc id="desc">Gradient card with layered waves and shapes</desc>
  <defs>
    <linearGradient id="bg3" x1="120" y1="40" x2="1100" y2="760" gradientUnits="userSpaceOnUse">
      <stop stop-color="#E8FBFF"/>
      <stop offset="1" stop-color="#BBE7F8"/>
    </linearGradient>
  </defs>
  <rect width="1200" height="800" rx="32" fill="url(#bg3)"/>
  <path d="M0 500C170 430 330 610 510 548C650 500 760 370 920 390C1030 404 1112 470 1200 540V800H0V500Z" fill="#25A5CF" fill-opacity="0.26"/>
  <path d="M0 600C180 520 340 680 516 640C706 598 810 480 978 502C1064 514 1138 558 1200 612V800H0V600Z" fill="#1B88AC" fill-opacity="0.34"/>
  <circle cx="870" cy="228" r="106" fill="#0E6E90" fill-opacity="0.24"/>
  <circle cx="286" cy="250" r="74" fill="#32B3D8" fill-opacity="0.3"/>
  <rect x="150" y="170" width="360" height="28" rx="14" fill="#0F6F91" fill-opacity="0.4"/>
  <rect x="150" y="214" width="260" height="18" rx="9" fill="#0F6F91" fill-opacity="0.24"/>
</svg>
