<svg xmlns="http://www.w3.org/2000/svg" xmlns:xlink="http://www.w3.org/1999/xlink" width="512" zoomAndPan="magnify" viewBox="0 0 384 383.999986" height="512" preserveAspectRatio="xMidYMid meet" version="1.0"><defs><clipPath id="cd495c53f0"><path d="M 195 223 L 307 223 L 307 300.316406 L 195 300.316406 Z M 195 223 " clip-rule="nonzero"/></clipPath><clipPath id="c4408ca2a4"><path d="M 195 230 L 364.949219 230 L 364.949219 300.316406 L 195 300.316406 Z M 195 230 " clip-rule="nonzero"/></clipPath><clipPath id="d4146ed18e"><path d="M 77 223 L 190 223 L 190 300.316406 L 77 300.316406 Z M 77 223 " clip-rule="nonzero"/></clipPath><clipPath id="2f0657c87a"><path d="M 19.199219 230 L 190 230 L 190 300.316406 L 19.199219 300.316406 Z M 19.199219 230 " clip-rule="nonzero"/></clipPath><clipPath id="b413452707"><path d="M 207 83.566406 L 222 83.566406 L 222 100 L 207 100 Z M 207 83.566406 " clip-rule="nonzero"/></clipPath></defs><path fill="#ddca7e" d="M 269.535156 132.476562 L 234.011719 119.320312 L 150.132812 119.320312 L 114.609375 132.476562 L 150.132812 145.628906 L 234.011719 145.628906 Z M 269.535156 132.476562 " fill-opacity="1" fill-rule="nonzero"/><path fill="#ddca7e" d="M 147.816406 181.703125 L 236.328125 181.703125 L 231.699219 152.484375 L 152.445312 152.484375 Z M 147.816406 181.703125 " fill-opacity="1" fill-rule="nonzero"/><path fill="#ba9751" d="M 93.214844 171.515625 L 179.550781 281.0625 L 141.21875 187.871094 Z M 93.214844 171.515625 " fill-opacity="1" fill-rule="nonzero"/><path fill="#ba9751" d="M 290.929688 171.515625 L 204.59375 281.0625 L 242.925781 187.871094 Z M 290.929688 171.515625 " fill-opacity="1" fill-rule="nonzero"/><path fill="#c8ab63" d="M 106.085938 136.628906 L 88.671875 162.726562 L 141.050781 180.570312 L 145.691406 151.292969 Z M 106.085938 136.628906 " fill-opacity="1" fill-rule="nonzero"/><path fill="#c8ab63" d="M 278.058594 136.628906 L 295.472656 162.726562 L 243.09375 180.570312 L 238.453125 151.292969 Z M 278.058594 136.628906 " fill-opacity="1" fill-rule="nonzero"/><path fill="#c8ab63" d="M 192.074219 293.476562 L 235.226562 188.558594 L 148.917969 188.558594 Z M 192.074219 293.476562 " fill-opacity="1" fill-rule="nonzero"/><g clip-path="url(#cd495c53f0)"><path fill="#b28a46" d="M 195.0625 300.277344 L 284.71875 223.5625 L 306.625 230.859375 Z M 195.0625 300.277344 " fill-opacity="1" fill-rule="nonzero"/></g><g clip-path="url(#c4408ca2a4)"><path fill="#b28a46" d="M 195.0625 300.277344 L 330.394531 230.917969 L 364.945312 241.910156 Z M 195.0625 300.277344 " fill-opacity="1" fill-rule="nonzero"/></g><g clip-path="url(#d4146ed18e)"><path fill="#b28a46" d="M 189.082031 300.277344 L 99.425781 223.5625 L 77.519531 230.859375 Z M 189.082031 300.277344 " fill-opacity="1" fill-rule="nonzero"/></g><g clip-path="url(#2f0657c87a)"><path fill="#b28a46" d="M 189.082031 300.277344 L 53.75 230.917969 L 19.199219 241.910156 Z M 189.082031 300.277344 " fill-opacity="1" fill-rule="nonzero"/></g><path fill="#b28a46" d="M 83.027344 196.324219 C 78.566406 197.566406 77.714844 198.570312 76.667969 203.84375 C 75.617188 198.570312 74.769531 197.566406 70.308594 196.324219 C 74.769531 195.085938 75.617188 194.078125 76.667969 188.804688 C 77.71875 194.078125 78.566406 195.082031 83.027344 196.324219 Z M 83.027344 196.324219 " fill-opacity="1" fill-rule="nonzero"/><path fill="#b28a46" d="M 64.199219 212.921875 C 62.53125 213.386719 62.214844 213.765625 61.820312 215.738281 C 61.429688 213.765625 61.109375 213.386719 59.441406 212.921875 C 61.109375 212.460938 61.429688 212.082031 61.820312 210.109375 C 62.214844 212.082031 62.53125 212.457031 64.199219 212.921875 Z M 64.199219 212.921875 " fill-opacity="1" fill-rule="nonzero"/><path fill="#b28a46" d="M 58.355469 185.742188 C 56.683594 186.207031 56.367188 186.582031 55.972656 188.558594 C 55.582031 186.582031 55.261719 186.207031 53.59375 185.742188 C 55.261719 185.277344 55.582031 184.902344 55.972656 182.925781 C 56.367188 184.898438 56.683594 185.277344 58.355469 185.742188 Z M 58.355469 185.742188 " fill-opacity="1" fill-rule="nonzero"/><path fill="#b28a46" d="M 117.183594 109.714844 C 111.484375 111.300781 110.398438 112.585938 109.058594 119.320312 C 107.71875 112.585938 106.632812 111.300781 100.9375 109.714844 C 106.632812 108.132812 107.71875 106.847656 109.058594 100.109375 C 110.398438 106.847656 111.484375 108.132812 117.183594 109.714844 Z M 117.183594 109.714844 " fill-opacity="1" fill-rule="nonzero"/><g clip-path="url(#b413452707)"><path fill="#b28a46" d="M 207.953125 91.421875 C 212.578125 92.710938 213.460938 93.753906 214.550781 99.222656 C 215.636719 93.753906 216.519531 92.710938 221.144531 91.421875 C 216.519531 90.136719 215.636719 89.09375 214.550781 83.625 C 213.460938 89.09375 212.578125 90.136719 207.953125 91.421875 Z M 207.953125 91.421875 " fill-opacity="1" fill-rule="nonzero"/></g><path fill="#b28a46" d="M 131.890625 105.234375 C 134.132812 105.859375 134.558594 106.363281 135.085938 109.015625 C 135.617188 106.363281 136.042969 105.859375 138.285156 105.234375 C 136.042969 104.613281 135.617188 104.105469 135.085938 101.457031 C 134.558594 104.105469 134.132812 104.613281 131.890625 105.234375 Z M 131.890625 105.234375 " fill-opacity="1" fill-rule="nonzero"/><path fill="#b28a46" d="M 301.117188 196.324219 C 305.578125 197.566406 306.429688 198.570312 307.476562 203.84375 C 308.527344 198.570312 309.375 197.566406 313.835938 196.324219 C 309.375 195.085938 308.527344 194.078125 307.476562 188.804688 C 306.429688 194.078125 305.578125 195.082031 301.117188 196.324219 Z M 301.117188 196.324219 " fill-opacity="1" fill-rule="nonzero"/><path fill="#b28a46" d="M 319.945312 212.921875 C 321.613281 213.386719 321.933594 213.765625 322.324219 215.738281 C 322.71875 213.765625 323.035156 213.386719 324.707031 212.921875 C 323.035156 212.460938 322.71875 212.082031 322.324219 210.109375 C 321.933594 212.082031 321.613281 212.457031 319.945312 212.921875 Z M 319.945312 212.921875 " fill-opacity="1" fill-rule="nonzero"/><path fill="#b28a46" d="M 325.789062 185.742188 C 327.460938 186.207031 327.777344 186.582031 328.171875 188.558594 C 328.5625 186.582031 328.882812 186.207031 330.550781 185.742188 C 328.882812 185.277344 328.5625 184.902344 328.171875 182.925781 C 327.777344 184.898438 327.460938 185.277344 325.789062 185.742188 Z M 325.789062 185.742188 " fill-opacity="1" fill-rule="nonzero"/><path fill="#b28a46" d="M 268.5 111.746094 C 274.601562 113.441406 275.761719 114.820312 277.199219 122.035156 C 278.632812 114.820312 279.796875 113.441406 285.898438 111.746094 C 279.796875 110.046875 278.632812 108.671875 277.199219 101.457031 C 275.765625 108.671875 274.601562 110.046875 268.5 111.746094 Z M 268.5 111.746094 " fill-opacity="1" fill-rule="nonzero"/><path fill="#b28a46" d="M 252.253906 105.234375 C 250.011719 105.859375 249.585938 106.363281 249.058594 109.015625 C 248.53125 106.363281 248.101562 105.859375 245.859375 105.234375 C 248.101562 104.613281 248.53125 104.105469 249.058594 101.457031 C 249.585938 104.105469 250.011719 104.613281 252.253906 105.234375 Z M 252.253906 105.234375 " fill-opacity="1" fill-rule="nonzero"/></svg>